# xmcd
#
# Track frame offsets:
#	150
#	14455
#	29821
#	45127
#	58129
#	72365
#	86967
#	101383
#	116461
#	131774
#	144161
#	158579
#	172958
#	187956
#	202445
#	217604
#	231607
#	246660
#
# Disc length: 3483 seconds
#
# Revision: 0
# Processed by: cddbd v1.5.2PL0 Copyright (c) Steve Scherf et al.
# Submitted via: EasyCDDAExtractor 16.0.6.1
#
DISCID=050d9912
DTITLE=Συλλογικός δίσκος - Το σμυρναίϊκο τραγούδι 1923-1940 1
DYEAR=2009
DGENRE=Σμυρναΐκη
TTITLE0=Διαμαντίδης Αντώνης ή Νταλγκάς - Μόρτισσα [1931, Αντώνη Διαμαντίδη]
TTITLE1=Αμπατζή Ρίτα-Κασιμάτης Ζαχαρίας - Αεροπλάνο θα πάρω [1934, Παναγιώτη Τ
TTITLE1=ούντα]
TTITLE2=Ατραϊδης Δημήτρης - Μανές νεβά τσιφτετέλι (Τον Χάρο ρωτήσανε)[1934, πα
TTITLE2=ραδοσιακό]
TTITLE3=Καρίπης Κώστας - Μάτια μου [1928, παραδοσιακό]
TTITLE4=Ρούκουνας Κώστας ή Σαμιωτάκης - Το κουκλί της Κοκκινιάς [1930, Παναγιώ
TTITLE4=τη Τούντα]
TTITLE5=Αμπατζή Ρίτα - Μη με στέλνεις μάννα στην Αμερική [1934, Δ. Σέμση-Γ. Κα
TTITLE5=μβύση]
TTITLE6=Ασίκης Γρηγόρης - Μιά Σμυρνιά στην Κοκκινιά [1931, Αντώνη Διαμαντίδη]
TTITLE7=Εσκενάζυ Ρόζα - Στου Συγγρού [1932, Παναγιώτη Τούντα]
TTITLE8=Αμπατζή Ρίτα - Φτώχεια μαζί με την τιμή [1934, Παναγιώτη Τούντα]
TTITLE9=Βιδάλης Γιώργος - Άϊντε ρε χήρα άπονη [1927, Παναγιώτη Τούντα]
TTITLE10=Περπινιάδης Στελλάκης - Βάλε με στην αγκαλιά σου [1934, Βαγγέλης Παπά
TTITLE10=ζογλου]
TTITLE11=Διαμαντίδης Αντώνης ή Νταλγκάς - Σμυρνιά καμωματού [1928, Δημήτρη Σέμ
TTITLE11=ση]
TTITLE12=Εσκενάζυ Ρόζα - Κόνιαλης της αγοράς [1930, Γιάννη Δραγάτση]
TTITLE13=Μαρσέλος Κώστας ή Νούρος - Το χασαπάκι [1931, Κώστα Σκαρβέλη]
TTITLE14=Εσκενάζυ Ρόζα - Δημητρούλα [1936, Παναγιώτη Τούντα]
TTITLE15=Διαμαντίδης Αντώνης ή Νταλγκάς - Ο μάγκας [1930, Δημήτρη Μπαρούση]
TTITLE16=Αμπατζή Ρίτα - Η Αρμενίτσα [1934, Κώστα Καρίπη]
TTITLE17=Περπινιάδης Στελλάκης - Εγώ θέλω πριγκηπέσσα [1936, Παναγιώτη Τούντα]
EXTD=
EXTT0=
EXTT1=
EXTT2=
EXTT3=
EXTT4=
EXTT5=
EXTT6=
EXTT7=
EXTT8=
EXTT9=
EXTT10=
EXTT11=
EXTT12=
EXTT13=
EXTT14=
EXTT15=
EXTT16=
EXTT17=
PLAYORDER=
